<?xml version="1.0" encoding="UTF-8" standalone="no"?>
<svg
   xmlns:dc="http://purl.org/dc/elements/1.1/"
   xmlns:cc="http://creativecommons.org/ns#"
   xmlns:rdf="http://www.w3.org/1999/02/22-rdf-syntax-ns#"
   xmlns:svg="http://www.w3.org/2000/svg"
   xmlns="http://www.w3.org/2000/svg"
   id="svg12"
   version="1.1"
   viewBox="0 0 516.66 522.15">
  <metadata
     id="metadata16">
    <rdf:RDF>
      <cc:Work
         rdf:about="">
        <dc:format>image/svg+xml</dc:format>
        <dc:type
           rdf:resource="http://purl.org/dc/dcmitype/StillImage" />
        <dc:title>Lichess Improved Logo</dc:title>
      </cc:Work>
    </rdf:RDF>
  </metadata>
  <defs
     id="defs4">
    <style
       id="style2">.cls-1{fill:#010101;}</style>
  </defs>
  <title
     id="title6">Lichess Improved Logo</title>
  <g
     data-name="Laag 2"
     id="Laag_2">
    <g
       data-name="Laag 1"
       id="Laag_1-2">
      <path
         id="path8"
         d="M513.93,298.58c-5.67-10.66-123.75-224.5-123.75-224.5L406,6.4a5.2,5.2,0,0,0-1.19-4.66,5.13,5.13,0,0,0-4.5-1.7c-32.33,3.82-72.14,14.68-101.74,31.74A250.76,250.76,0,0,0,249.58,27C111.74,27,0,138.72,0,276.56S111.74,522.15,249.58,522.15c70.19,0,125.07-30.12,168.25-77.3,3-3.26,2.68-6.6.48-8.73s-5.58-2.42-8.68.47c-40.78,38-100.6,60.14-160,60.14-119.39,0-216.17-100.78-216.17-220.17S130.2,60.4,249.58,60.4c21.55-.51,58.94,6,58.94,6,20.13-11.87,41.3-24.45,61.15-27.09L354.57,82.6A5.18,5.18,0,0,0,355,87L487.25,308.59c-4.19,44.11-45.1,54.49-56.39,56.78-6.25-14-17.7-29.66-50.16-61-9.16-8.85-26.3-20.45-46.15-33.89C283.14,235.7,205.44,183.1,217.32,140.39a5.22,5.22,0,0,0-10-2.83c-17.39,60.55,61.31,121.31,113.39,161.51,14.19,11,26.44,20.42,34.59,28.09,37.91,35.67,55.75,62,59.43,69.11a5.27,5.27,0,0,0,6,2.65c.77-.21,62.1-16.54,85.94-54.42C518.14,326.18,518.5,307.17,513.93,298.58Z"
         class="cls-1" />
    </g>
  </g>
  <g
     transform="matrix(0.58096829,0,0,0.58096829,249.26201,409.31252)"
     id="g4567">
    <g
       style="opacity:1;fill:none;fill-rule:nonzero;stroke:none;stroke-width:0;stroke-linecap:butt;stroke-linejoin:miter;stroke-miterlimit:10;stroke-dasharray:none"
       transform="matrix(3.89,0,0,3.89,-175.05,-175.05)"
       id="g4565">
      <path
         d="m 45,70.968 c -16.013,0 -29.042,-13.028 -29.042,-29.042 0,-1.712 1.388,-3.099 3.099,-3.099 1.712,0 3.099,1.388 3.099,3.099 C 22.157,54.522 32.404,64.77 45,64.77 c 12.595,0 22.843,-10.248 22.843,-22.843 0,-1.712 1.387,-3.099 3.099,-3.099 1.712,0 3.099,1.388 3.099,3.099 C 74.042,57.94 61.013,70.968 45,70.968 Z"
         style="opacity:1;fill:#000000;fill-rule:nonzero;stroke:none;stroke-width:1;stroke-linecap:butt;stroke-linejoin:miter;stroke-miterlimit:10;stroke-dasharray:none"
         id="path4557" />
      <path
         d="m 45,60.738 v 0 c -10.285,0 -18.7,-8.415 -18.7,-18.7 V 18.7 C 26.3,8.415 34.715,0 45,0 v 0 c 10.285,0 18.7,8.415 18.7,18.7 v 23.337 c 0,10.285 -8.415,18.701 -18.7,18.701 z"
         style="opacity:1;fill:#000000;fill-rule:nonzero;stroke:none;stroke-width:1;stroke-linecap:butt;stroke-linejoin:miter;stroke-miterlimit:10;stroke-dasharray:none"
         id="path4559" />
      <path
         d="m 45,89.213 c -1.712,0 -3.099,-1.387 -3.099,-3.099 V 68.655 c 0,-1.712 1.388,-3.099 3.099,-3.099 1.712,0 3.099,1.387 3.099,3.099 v 17.459 c 0,1.712 -1.387,3.099 -3.099,3.099 z"
         style="opacity:1;fill:#000000;fill-rule:nonzero;stroke:none;stroke-width:1;stroke-linecap:butt;stroke-linejoin:miter;stroke-miterlimit:10;stroke-dasharray:none"
         id="path4561" />
      <path
         d="M 55.451,90 H 34.549 c -1.712,0 -3.099,-1.387 -3.099,-3.099 0,-1.712 1.388,-3.099 3.099,-3.099 H 55.45 c 1.712,0 3.099,1.387 3.099,3.099 0,1.712 -1.386,3.099 -3.098,3.099 z"
         style="opacity:1;fill:#000000;fill-rule:nonzero;stroke:none;stroke-width:1;stroke-linecap:butt;stroke-linejoin:miter;stroke-miterlimit:10;stroke-dasharray:none"
         id="path4563" />
    </g>
  </g>
</svg>
