<?xml version="1.0" encoding="UTF-8" standalone="no"?>
<svg
   xmlns:dc="http://purl.org/dc/elements/1.1/"
   xmlns:cc="http://creativecommons.org/ns#"
   xmlns:rdf="http://www.w3.org/1999/02/22-rdf-syntax-ns#"
   xmlns:svg="http://www.w3.org/2000/svg"
   xmlns="http://www.w3.org/2000/svg"
   xmlns:sodipodi="http://sodipodi.sourceforge.net/DTD/sodipodi-0.dtd"
   xmlns:inkscape="http://www.inkscape.org/namespaces/inkscape"
   id="svg12"
   version="1.1"
   viewBox="0 0 516.66 522.15"
   sodipodi:docname="Lichess by Voice.svg"
   inkscape:version="0.92.2 5c3e80d, 2017-08-06">
  <sodipodi:namedview
     pagecolor="#ffffff"
     bordercolor="#666666"
     borderopacity="1"
     objecttolerance="10"
     gridtolerance="10"
     guidetolerance="10"
     inkscape:pageopacity="0"
     inkscape:pageshadow="2"
     inkscape:window-width="3440"
     inkscape:window-height="1322"
     id="namedview16"
     showgrid="false"
     inkscape:zoom="0.45197738"
     inkscape:cx="262.75499"
     inkscape:cy="261.07501"
     inkscape:window-x="0"
     inkscape:window-y="54"
     inkscape:window-maximized="1"
     inkscape:current-layer="svg12" />
  <metadata
     id="metadata16">
    <rdf:RDF>
      <cc:Work
         rdf:about="">
        <dc:format>image/svg+xml</dc:format>
        <dc:type
           rdf:resource="http://purl.org/dc/dcmitype/StillImage" />
        <dc:title>Lichess Improved Logo</dc:title>
      </cc:Work>
    </rdf:RDF>
  </metadata>
  <defs
     id="defs4">
    <style
       id="style2">.cls-1{fill:#010101;}</style>
  </defs>
  <title
     id="title6">Lichess Improved Logo</title>
  <g
     data-name="Laag 2"
     id="Laag_2"
     transform="matrix(1,0,0,0.98949504,0,5.4851645)"
     inkscape:export-xdpi="95.052933"
     inkscape:export-ydpi="95.052933">
    <g
       data-name="Laag 1"
       id="Laag_1-2">
      <path
         id="path8"
         d="M 513.93,298.58 C 508.26,287.92 390.18,74.08 390.18,74.08 L 406,6.4 a 5.2,5.2 0 0 0 -1.19,-4.66 5.13,5.13 0 0 0 -4.5,-1.7 C 367.98,3.86 328.17,14.72 298.57,31.78 A 250.76,250.76 0 0 0 249.58,27 C 111.74,27 0,138.72 0,276.56 0,414.4 111.74,522.15 249.58,522.15 c 70.19,0 125.07,-30.12 168.25,-77.3 3,-3.26 2.68,-6.6 0.48,-8.73 -2.2,-2.13 -5.58,-2.42 -8.68,0.47 -40.78,38 -100.6,60.14 -160,60.14 C 130.24,496.73 33.46,395.95 33.46,276.56 33.46,157.17 130.2,60.4 249.58,60.4 c 21.55,-0.51 58.94,6 58.94,6 20.13,-11.87 41.3,-24.45 61.15,-27.09 L 354.57,82.6 A 5.18,5.18 0 0 0 355,87 l 132.25,221.59 c -4.19,44.11 -45.1,54.49 -56.39,56.78 -6.25,-14 -17.7,-29.66 -50.16,-61 -9.16,-8.85 -26.3,-20.45 -46.15,-33.89 C 283.14,235.7 205.44,183.1 217.32,140.39 a 5.22,5.22 0 0 0 -10,-2.83 c -17.39,60.55 61.31,121.31 113.39,161.51 14.19,11 26.44,20.42 34.59,28.09 37.91,35.67 55.75,62 59.43,69.11 a 5.27,5.27 0 0 0 6,2.65 c 0.77,-0.21 62.1,-16.54 85.94,-54.42 11.47,-18.32 11.83,-37.33 7.26,-45.92 z"
         class="cls-1"
         inkscape:connector-curvature="0"
         style="fill:#010101" />
    </g>
  </g>
  <g
     transform="matrix(0.58096829,0,0,0.58096829,249.26201,409.31252)"
     id="g4567">
    <g
       style="opacity:1;fill:none;fill-rule:nonzero;stroke:none;stroke-width:0;stroke-linecap:butt;stroke-linejoin:miter;stroke-miterlimit:10;stroke-dasharray:none"
       transform="matrix(3.89,0,0,3.89,-175.05,-175.05)"
       id="g4565">
      <path
         d="m 45,70.968 c -16.013,0 -29.042,-13.028 -29.042,-29.042 0,-1.712 1.388,-3.099 3.099,-3.099 1.712,0 3.099,1.388 3.099,3.099 C 22.157,54.522 32.404,64.77 45,64.77 c 12.595,0 22.843,-10.248 22.843,-22.843 0,-1.712 1.387,-3.099 3.099,-3.099 1.712,0 3.099,1.388 3.099,3.099 C 74.042,57.94 61.013,70.968 45,70.968 Z"
         style="opacity:1;fill:#000000;fill-rule:nonzero;stroke:none;stroke-width:1;stroke-linecap:butt;stroke-linejoin:miter;stroke-miterlimit:10;stroke-dasharray:none"
         id="path4557" />
      <path
         d="m 45,60.738 v 0 c -10.285,0 -18.7,-8.415 -18.7,-18.7 V 18.7 C 26.3,8.415 34.715,0 45,0 v 0 c 10.285,0 18.7,8.415 18.7,18.7 v 23.337 c 0,10.285 -8.415,18.701 -18.7,18.701 z"
         style="opacity:1;fill:#000000;fill-rule:nonzero;stroke:none;stroke-width:1;stroke-linecap:butt;stroke-linejoin:miter;stroke-miterlimit:10;stroke-dasharray:none"
         id="path4559" />
      <path
         d="m 45,89.213 c -1.712,0 -3.099,-1.387 -3.099,-3.099 V 68.655 c 0,-1.712 1.388,-3.099 3.099,-3.099 1.712,0 3.099,1.387 3.099,3.099 v 17.459 c 0,1.712 -1.387,3.099 -3.099,3.099 z"
         style="opacity:1;fill:#000000;fill-rule:nonzero;stroke:none;stroke-width:1;stroke-linecap:butt;stroke-linejoin:miter;stroke-miterlimit:10;stroke-dasharray:none"
         id="path4561" />
      <path
         d="M 55.451,90 H 34.549 c -1.712,0 -3.099,-1.387 -3.099,-3.099 0,-1.712 1.388,-3.099 3.099,-3.099 H 55.45 c 1.712,0 3.099,1.387 3.099,3.099 0,1.712 -1.386,3.099 -3.098,3.099 z"
         style="opacity:1;fill:#000000;fill-rule:nonzero;stroke:none;stroke-width:1;stroke-linecap:butt;stroke-linejoin:miter;stroke-miterlimit:10;stroke-dasharray:none"
         id="path4563" />
    </g>
  </g>
</svg>
